<svg xmlns="http://www.w3.org/2000/svg" viewBox="0 0 340 150" role="img" aria-label="Cl’┐Įnicas M’┐Įdicas Jerusal’┐Įn">
  <defs>
    <linearGradient id="adult" x1="0%" y1="0%" x2="100%" y2="100%">
      <stop offset="0%" stop-color="#003366"/>
      <stop offset="100%" stop-color="#005580"/>
    </linearGradient>
    <linearGradient id="parent" x1="0%" y1="0%" x2="100%" y2="100%">
      <stop offset="0%" stop-color="#1a6faa"/>
      <stop offset="100%" stop-color="#3d9fd4"/>
    </linearGradient>
    <linearGradient id="child" x1="0%" y1="0%" x2="100%" y2="100%">
      <stop offset="0%" stop-color="#a8841a"/>
      <stop offset="100%" stop-color="#e8c547"/>
    </linearGradient>
    <linearGradient id="gold-text" x1="0%" y1="0%" x2="100%" y2="0%">
      <stop offset="0%" stop-color="#a8841a"/>
      <stop offset="50%" stop-color="#e8c547"/>
      <stop offset="100%" stop-color="#c9a227"/>
    </linearGradient>
    <linearGradient id="navy-text" x1="0%" y1="0%" x2="100%" y2="0%">
      <stop offset="0%" stop-color="#003366"/>
      <stop offset="100%" stop-color="#005580"/>
    </linearGradient>
  </defs>
  <path d="M55 78 Q170 92 285 78" fill="none" stroke="url(#gold-text)" stroke-width="1.5" opacity="0.6"/>
  <g transform="translate(130, 4) scale(1.15)">
    <circle cx="20" cy="16" r="9" fill="url(#adult)"/>
    <path d="M20 25 C9 30 5 46 16 56 C26 64 42 59 44 44 C46 32 31 27 20 25 Z" fill="url(#adult)"/>
    <circle cx="40" cy="22" r="7" fill="url(#parent)"/>
    <path d="M40 29 C33 33 30 44 36 52 C42 58 52 55 53 45 C54 37 47 31 40 29 Z" fill="url(#parent)"/>
    <circle cx="56" cy="28" r="5.5" fill="url(#child)"/>
    <path d="M56 33.5 C51 36.5 49 43 53.5 48.5 C58 52.5 65 49.5 65 43 C65 38 60 35 56 33.5 Z" fill="url(#child)"/>
  </g>
  <circle cx="170" cy="82" r="3" fill="#c9a227"/>
  <line x1="100" y1="82" x2="158" y2="82" stroke="url(#gold-text)" stroke-width="1.2"/>
  <line x1="182" y1="82" x2="240" y2="82" stroke="url(#gold-text)" stroke-width="1.2"/>
  <text x="170" y="118" text-anchor="middle" fill="url(#navy-text)" font-family="'Segoe Script','Brush Script MT',cursive" font-size="26">Cl’┐Įnicas M’┐Įdicas Jerusal’┐Įn</text>
  <text x="170" y="140" text-anchor="middle" fill="url(#gold-text)" font-family="Arial,Helvetica,sans-serif" font-size="9" letter-spacing="3" font-weight="600">ATENCI’┐ĮN M’┐ĮDICA INTEGRAL</text>
</svg>
