<svg xmlns="http://www.w3.org/2000/svg" viewBox="0 0 32 32" role="img" aria-label="Cl’┐Įnicas M’┐Įdicas Jerusal’┐Įn">
  <defs>
    <linearGradient id="bg" x1="0%" y1="0%" x2="100%" y2="100%">
      <stop offset="0%" stop-color="#003366"/>
      <stop offset="100%" stop-color="#001f3f"/>
    </linearGradient>
    <linearGradient id="adult" x1="0%" y1="0%" x2="100%" y2="100%">
      <stop offset="0%" stop-color="#ffffff"/>
      <stop offset="100%" stop-color="#b8d4f0"/>
    </linearGradient>
    <linearGradient id="parent" x1="0%" y1="0%" x2="100%" y2="100%">
      <stop offset="0%" stop-color="#7ec8f0"/>
      <stop offset="100%" stop-color="#ffffff"/>
    </linearGradient>
    <linearGradient id="child" x1="0%" y1="0%" x2="100%" y2="100%">
      <stop offset="0%" stop-color="#e8c547"/>
      <stop offset="100%" stop-color="#fff3b0"/>
    </linearGradient>
  </defs>
  <rect width="32" height="32" rx="7" fill="url(#bg)"/>
  <g transform="translate(3, 6) scale(0.42)">
    <circle cx="20" cy="16" r="9" fill="url(#adult)"/>
    <path d="M20 25 C9 30 5 46 16 56 C26 64 42 59 44 44 C46 32 31 27 20 25 Z" fill="url(#adult)"/>
    <circle cx="40" cy="22" r="7" fill="url(#parent)"/>
    <path d="M40 29 C33 33 30 44 36 52 C42 58 52 55 53 45 C54 37 47 31 40 29 Z" fill="url(#parent)"/>
    <circle cx="56" cy="28" r="5.5" fill="url(#child)"/>
    <path d="M56 33.5 C51 36.5 49 43 53.5 48.5 C58 52.5 65 49.5 65 43 C65 38 60 35 56 33.5 Z" fill="url(#child)"/>
  </g>
</svg>
